<?xml version="1.0" encoding="UTF-8" standalone="no"?>
<svg
   xmlns:osb="http://www.openswatchbook.org/uri/2009/osb"
   xmlns:dc="http://purl.org/dc/elements/1.1/"
   xmlns:cc="http://creativecommons.org/ns#"
   xmlns:rdf="http://www.w3.org/1999/02/22-rdf-syntax-ns#"
   xmlns:svg="http://www.w3.org/2000/svg"
   xmlns="http://www.w3.org/2000/svg"
   xmlns:sodipodi="http://sodipodi.sourceforge.net/DTD/sodipodi-0.dtd"
   xmlns:inkscape="http://www.inkscape.org/namespaces/inkscape"
   width="1000"
   height="1000"
   id="svg2"
   version="1.1"
   inkscape:version="0.48.4 r9939"
   sodipodi:docname="masklogo1.svg">
  <metadata
     id="metadata12">
    <rdf:RDF>
      <cc:Work
         rdf:about="">
        <dc:format>image/svg+xml</dc:format>
        <dc:type
           rdf:resource="http://purl.org/dc/dcmitype/StillImage" />
      </cc:Work>
    </rdf:RDF>
  </metadata>
  <defs
     id="defs10">
    <inkscape:path-effect
       effect="envelope"
       id="path-effect5307"
       is_visible="true"
       yy="true"
       xx="true"
       bendpath1="m 50,48.569431 900.78236,0"
       bendpath2="m 950.78236,48.569431 0,902.775659"
       bendpath3="m 50,951.34509 900.78236,0"
       bendpath4="M 50,48.569431 50,951.34509" />
    <linearGradient
       id="linearGradient5301"
       osb:paint="solid">
      <stop
         style="stop-color:#f16600;stop-opacity:1;"
         offset="0"
         id="stop5303" />
    </linearGradient>
    <filter
       inkscape:collect="always"
       id="filter3847">
      <feGaussianBlur
         inkscape:collect="always"
         stdDeviation="2.2544475"
         id="feGaussianBlur3849" />
    </filter>
  </defs>
  <sodipodi:namedview
     pagecolor="#ffffff"
     bordercolor="#666666"
     borderopacity="1"
     objecttolerance="10"
     gridtolerance="10"
     guidetolerance="10"
     inkscape:pageopacity="0"
     inkscape:pageshadow="2"
     inkscape:window-width="1077"
     inkscape:window-height="762"
     id="namedview8"
     showgrid="false"
     inkscape:zoom="0.35355339"
     inkscape:cx="404.80591"
     inkscape:cy="521.94751"
     inkscape:window-x="153"
     inkscape:window-y="67"
     inkscape:window-maximized="0"
     inkscape:current-layer="svg2" />
  <path
     style="fill:#ffffff; stroke:none;"
     d="M0 0L0 1000L1000 1000L1000 0L0 0z"
     id="path4" />
  <path
     style="fill:#f16600;fill-opacity:1;fill-rule:nonzero;stroke:none"
     d="m 0.13287334,0.41445863 0,230.87677137 C 35.438506,208.25264 80.473535,197.59438 119.47498,181.99292 199.5725,149.95347 279.41793,118.15604 360.38989,88.467742 410.31838,70.161555 458.63745,46.496126 507.61566,25.597539 525.9319,17.78197 544.15331,6.7892241 563.38301,1.5298053 550.60559,-3.8317783 528.21389,0.41445863 514.30774,0.41445863 l -114.88071,0 -399.29415666,0 m 613.44073666,0 C 618.26141,12.818007 604.401,26.013341 607.88422,40.566943 c 2.05226,8.574006 8.53129,30.572772 19.07468,31.779576 9.05214,1.036158 21.71802,-13.985333 27.88254,-19.454771 C 675.03145,34.977159 697.17666,13.211836 721.76225,1.5298053 712.70786,-2.269735 698.11356,0.41445863 688.30184,0.41445863 l -74.72823,0 m 150.57182,0 C 793.64188,36.508976 828.69724,58.482759 868.98803,81.192334 c 14.15597,7.980307 34.52778,21.126896 51.30596,19.486216 7.78512,-0.761778 14.56307,-6.377544 21.19158,-10.074919 l 34.57575,-18.875014 c 8.88039,-5.446237 17.14511,-13.375238 27.88378,-8.854739 l 0,-62.45941937 -239.79967,0 M 740.72314,12.357147 c -7.12928,1.529252 -14.31994,8.564524 -20.07624,12.763582 l -46.84457,39.190833 c -5.80202,5.04806 -16.36213,12.886715 -17.8578,20.869254 -1.84145,9.836243 11.66318,11.578416 15.27132,18.965364 3.71856,7.61224 -2.60546,14.73595 -2.57755,22.30247 0.0333,9.31983 9.07333,18.09091 13.58156,25.65298 11.76243,19.72937 21.84406,55.62568 49.58051,50.4092 38.94567,-7.32448 75.23684,-39.15312 109.30399,-58.53004 8.30822,-4.72575 32.09745,-12.4194 33.25072,-23.11334 1.6719,-15.51335 -16.38444,-18.75121 -26.55864,-24.378133 C 820.33101,81.299409 792.12615,62.702116 769.72216,40.562704 763.80971,34.720071 749.50985,10.472211 740.72314,12.357147 M 0.13287334,246.9061 l 0,311.18177 C 52.200273,521.4108 100.37243,476.4177 149.58935,435.91722 267.21939,339.11739 386.53808,243.60133 513.1924,159.16511 l 52.42129,-38.14819 c 6.90512,-5.22876 18.05635,-10.63707 21.31093,-19.10591 5.15515,-13.41873 -3.13188,-24.741732 -2.25077,-37.921785 l -1.2146,-34.57575 c -0.007,-4.029079 0.69486,-10.800459 -4.58297,-11.810073 -10.92705,-2.090828 -28.14576,10.731866 -37.80021,15.000411 L 441.8102,78.076056 C 402.69722,97.629196 359.84671,110.51369 319.12205,126.23784 L 133.97449,200.28796 40.285358,237.09104 C 28.111347,241.96066 13.235856,251.6731 0.13287334,246.9061 M 1002.8296,76.258041 c -6.05295,7.892193 -17.71278,17.12615 -26.76828,21.302014 -8.18218,3.772105 -18.49357,5.286725 -22.77984,14.393535 -3.04824,6.47907 0.68483,11.85503 6.05521,15.4933 l 44.60841,28.00076 0,-54.65198 c 0,-7.457209 1.7833,-17.629171 -1.1155,-24.537629 M 0.13287334,585.97154 l 0,50.19059 C 60.066032,596.68333 122.41281,560.65761 184.16509,524.12333 l 37.92181,-27.37062 22.30692,-8.49003 231.99214,-137.15643 c 51.38291,-29.83775 105.84306,-55.24981 156.14407,-86.87658 l 14.60772,-15.08731 19.9714,-7.42152 c 6.48574,-4.55172 14.20617,-14.33444 14.3177,-22.69397 0.087,-6.47792 -6.28052,-15.22225 -8.83577,-21.19603 -8.24466,-19.27654 -17.9069,-39.27694 -29.24664,-56.88269 -5.5667,-8.64282 -13.7444,-29.37711 -26.42479,-27.61599 -12.69822,1.76337 -29.17078,18.68095 -39.03714,26.50399 l -79.18963,56.85034 C 379.10318,279.11285 266.73422,374.28763 156.28143,468.39056 L 43.631399,559.9449 C 32.869306,568.45277 15.159271,590.75971 0.13287334,585.97154 M 1003.9451,403.05464 l 0,-229.76142 c -11.19931,2.04665 -19.90905,-4.96887 -28.99912,-10.80995 l -36.80646,-21.53512 c -6.38647,-3.83231 -13.64515,-9.86077 -21.19157,-10.91143 -12.63244,-1.76003 -30.67094,12.84097 -41.26784,18.88616 l -69.1515,41.99281 c -14.22625,8.53575 -31.12711,16.20042 -43.37695,27.51003 -12.82649,11.84052 6.31509,20.22011 3.30588,31.82196 -1.67636,6.45786 -11.92863,6.86941 -11.9476,13.43769 -0.0157,5.51428 4.88633,11.10997 7.6156,15.56578 l 19.6513,32.34507 c 23.91191,38.50958 52.23168,77.83001 70.01143,119.34209 7.36686,17.20201 19.42487,33.99912 29.02577,50.19061 3.99297,6.73225 8.06508,14.44265 16.05765,16.94883 10.67164,3.34602 37.7545,4.22603 46.79996,-2.91666 13.31278,-10.51214 22.70623,-37.46337 28.31642,-53.06931 3.8078,-10.59245 19.12709,-41.3894 31.95703,-39.03714 M 0.13287334,665.16116 l 0,339.06534 555.44269666,0 c -3.79106,-16.11779 15.39849,-27.13297 20.34393,-41.26775 8.35283,-23.87065 17.78197,-47.90972 36.63803,-65.59913 l 22.80549,-13.69421 c 19.52639,-21.76156 34.47425,-50.53304 49.11989,-75.73989 l 22.24558,-36.80643 3.91152,-21.17039 c 2.33554,-4.4692 7.44384,-6.39875 12.23647,-5.11387 9.02316,2.41919 10.79099,12.80307 9.5496,20.70752 -2.67907,17.057 -15.59478,32.51013 -24.52201,46.84458 -28.04763,45.03326 -56.88604,88.40796 -87.63839,131.61091 -13.30163,18.68653 -26.65566,44.81576 -44.61386,59.11336 12.25544,5.1429 33.50837,1.1153 46.84457,1.1153 -5.06927,-12.04455 6.32512,-21.73692 12.5075,-31.22963 l 53.29795,-78.07429 91.06138,-133.84161 7.72712,-17.84555 10.90699,-13.38415 13.84032,-22.26346 c 12.24762,-15.64271 24.94585,-29.44513 35.25946,-46.88804 l 19.73272,-40.15249 c 8.70417,-14.10245 23.82937,-29.72512 25.58048,-46.84457 -6.25933,2.6958 -14.93338,5.68603 -19.96025,10.28907 -18.47237,16.91202 -26.08684,42.13001 -54.76798,42.13224 -8.73428,0 -40.40678,3.02257 -34.64603,-14.49506 4.46362,-13.57487 19.96806,-2.7839 27.47435,-10.39725 l 5.51315,-10.56123 18.15116,-12.55433 c 7.46614,-8.30489 6.85603,-18.11213 10.42404,-27.83572 l 11.53044,-23.4223 c 2.45711,-10.87574 -3.37838,-20.75547 -8.05724,-30.11434 L 814.4353,435.39971 757.29832,332.78781 c -6.55713,-11.15347 -14.88543,-33.45596 -26.6579,-39.64277 -16.07997,-8.45099 -41.85006,1.59271 -59.06877,-0.10591 -7.88105,-0.77742 -12.31567,-10.94268 -20.07625,-9.94109 -11.65648,1.5057 -24.30117,12.78632 -34.57575,18.17567 l -97.03517,55.5822 c -31.45054,18.0307 -67.15391,35.01743 -95.90309,57.08568 -8.38741,6.43891 -7.74051,17.63141 -16.7514,23.74016 -37.91955,25.70429 -80.69535,45.66786 -120.45299,68.46111 l -114.88073,73.36417 c -19.73828,12.05355 -38.46385,30.72891 -59.11336,40.54731 -8.25691,3.92602 -15.373945,-2.71363 -23.422293,-0.59003 -12.087013,3.19101 -25.13211,14.15265 -35.691098,20.80346 C 40.567317,648.52246 15.95942,670.79705 0.13287334,665.1612 M 1002.8296,459.93734 c -8.00035,17.115 -23.10994,33.3366 -26.40133,52.42129 -1.41203,8.18553 2.54412,15.75317 4.73353,23.42229 5.32243,18.65305 12.25431,33.21505 21.6678,50.19062 3.3505,-7.98478 1.1155,-20.36179 1.1155,-28.99904 l 0,-64.69011 c 0,-9.51837 2.5718,-23.55723 -1.1155,-32.34505 m -88.04654,58.64047 c -8.73094,2.61104 -2.14259,12.21083 5.46185,9.77825 9.53844,-3.05048 2.19275,-12.06694 -5.46185,-9.77825 m 88.04654,173.35166 c 2.6714,-6.36528 1.1155,-15.4431 1.1155,-22.30693 l 0,-47.95992 c -17.82558,6.11655 -36.44854,-22.29242 -45.55644,-34.57574 -3.19436,-4.3086 -8.98636,-15.30703 -15.62268,-14.4627 -3.71186,0.4729 -3.35272,5.18859 -2.55749,7.77062 l 12.04575,20.07625 29.93257,54.65198 20.64279,36.80644 m -334.604,312.29703 335.7195,0 0,-257.64503 c -8.12095,1.32168 -12.87902,-6.01507 -16.72586,-12.26883 -6.02287,-9.79161 -15.76541,-27.89816 -25.67416,-33.88089 -5.86673,-3.54233 -12.11156,4.63874 -17.82882,6.1043 -13.65072,3.50108 -31.68029,1.60277 -45.72922,0.96479 -5.48305,-0.24984 -11.59403,-1.64405 -14.64115,-6.69768 -2.55303,-4.23607 -0.6547,-8.64951 2.61102,-11.85278 l 16.34319,-10.77202 17.10162,-25.28604 c 3.07834,-4.41117 7.78175,-17.15626 -1.38751,-18.31175 -8.32494,-1.04956 -13.43658,14.42031 -18.00281,19.3825 l -16.9555,14.56084 -29.68719,54.63527 -46.60476,71.38109 -13.95076,14.50507 -19.60779,37.91733 -31.32898,46.84457 -19.33454,21.19157 -54.31628,89.22769 M 949.29299,685.23739 c -0.50078,-4.86514 -7.36575,-21.65333 -14.76941,-15.57917 -7.49067,6.14557 10.29799,15.09399 14.76941,15.57917 z"
     id="path6"
     inkscape:connector-curvature="0" />
</svg>
